<?xml version="1.0" encoding="utf-8"?>
<!-- Generator: Adobe Illustrator 19.2.1, SVG Export Plug-In . SVG Version: 6.00 Build 0)  -->
<svg version="1.1" id="Layer_1" xmlns="http://www.w3.org/2000/svg" xmlns:xlink="http://www.w3.org/1999/xlink" x="0px" y="0px"
	 viewBox="0 0 950 1000" style="enable-background:new 0 0 950 1000;" xml:space="preserve">
<style type="text/css">
	.st0{fill:#333333;}
	.st1{opacity:0.98;}
	.st2{opacity:0.98;fill:#333333;enable-background:new    ;}
</style>
<g>
	<g>
		<path class="st0" d="M81,66.1c3.8,0,7-3,7-7s-3-7-7-7V66.1z"/>
	</g>
	<g>
		<path class="st0" d="M45.7,73.8h-6.3c-0.7,0-1.2-0.5-1.2-1.2V47.1c0-0.7,0.5-1.2,1.2-1.2h6.3c0.1,0,0.2,0.1,0.2,0.2v27.4
			C46,73.7,45.8,73.8,45.7,73.8z"/>
	</g>
	<g>
		<path class="st0" d="M51.8,71V48c0-0.9,0.7-1.7,1.6-1.7h7.3c0.1,0,0.2,0,0.2-0.1l14-9.9c0.3-0.2,0.8,0,0.8,0.5v22.7v22.2
			c0,0.4-0.4,0.7-0.8,0.5l-14.4-9.3c-0.1-0.1-0.2-0.1-0.2-0.1h-6.9C52.5,72.7,51.8,71.9,51.8,71z"/>
	</g>
	<g>
		<path class="st0" d="M84.5,73.7c-0.8,0-1.5-0.6-1.5-1.5c0-0.8,0.6-1.5,1.5-1.5c6.3,0,11.4-5.1,11.4-11.4s-5.1-11.4-11.4-11.4
			c-0.8,0-1.5-0.6-1.5-1.5c0-0.9,0.6-1.5,1.5-1.5c7.9,0.1,14.4,6.5,14.4,14.4C98.8,67.2,92.3,73.7,84.5,73.7z"/>
	</g>
</g>
<g>
	<path class="st0" d="M98.7,192.7L98.7,192.7c0.4-0.4,0.4-1.2,0-1.6l-4.8-4.8c-0.4-0.4-0.4-1.1,0-1.4l4.8-4.8c0.4-0.4,0.4-1.2,0-1.6
		l0,0c-0.4-0.4-1.2-0.4-1.6,0l-4.8,4.8c-0.4,0.4-1.1,0.4-1.4,0l-4.8-4.8c-0.4-0.4-1.2-0.4-1.6,0l0,0c-0.4,0.4-0.4,1.2,0,1.6l4.8,4.8
		c0.4,0.4,0.4,1.1,0,1.4l-4.8,4.8c-0.4,0.4-0.4,1.2,0,1.6l0,0c0.4,0.4,1.2,0.4,1.6,0l4.8-4.8c0.4-0.4,1.1-0.4,1.4,0l4.8,4.8
		C97.5,193.2,98.3,193.2,98.7,192.7z"/>
	<g>
		<g>
			<path class="st0" d="M45.1,200.4h-6.4c-0.7,0-1.2-0.5-1.2-1.2v-25.9c0-0.7,0.5-1.2,1.2-1.2h6.4c0.1,0,0.3,0.1,0.3,0.3v27.7
				C45.4,200.3,45.3,200.4,45.1,200.4z"/>
		</g>
		<g>
			<path class="st0" d="M51.3,197.5v-23.3c0-0.9,0.8-1.8,1.6-1.8h7.4c0.1,0,0.2,0,0.3-0.1l14.2-10.1c0.3-0.3,0.8,0,0.8,0.5v23v22.5
				c0,0.4-0.4,0.8-0.8,0.5l-14.6-9.4c-0.1-0.1-0.2-0.1-0.3-0.1h-7C52.1,199.3,51.3,198.5,51.3,197.5z"/>
		</g>
	</g>
</g>
<g>
	<path class="st0" d="M61.1,314.2H55c-0.1,0-0.2-0.1-0.2-0.2v-30.5c0-0.1,0.1-0.2,0.2-0.2h6.2c0.1,0,0.2,0.1,0.2,0.2V314
		C61.3,314.1,61.2,314.2,61.1,314.2z"/>
	<path class="st0" d="M71.3,314.2h-6.2c-0.1,0-0.2-0.1-0.2-0.2v-16c0-0.1,0.1-0.2,0.2-0.2h6.2c0.1,0,0.2,0.1,0.2,0.2v16
		C71.6,314.1,71.5,314.2,71.3,314.2z"/>
	<path class="st0" d="M81.7,314.2h-6.2c-0.1,0-0.2-0.1-0.2-0.2v-41.9c0-0.1,0.1-0.2,0.2-0.2h6.2c0.1,0,0.2,0.1,0.2,0.2V314
		C81.9,314.1,81.8,314.2,81.7,314.2z"/>
	<path class="st0" d="M91.9,314.2h-6.1c-0.1,0-0.2-0.1-0.2-0.2v-18.2c0-0.1,0.1-0.2,0.2-0.2h6.2c0.1,0,0.2,0.1,0.2,0.2V314
		C92.1,314.1,92,314.2,91.9,314.2z"/>
</g>
<g>
	<path class="st0" d="M83.4,422.7c-0.2-0.2-0.4-0.4-0.5-0.5c-3-3-5.9-5.9-8.9-8.9c-0.5-0.5-0.7-0.4-1.1,0c-2.9,3-5.9,5.9-8.8,8.9
		c-0.4,0.4-0.6,0.5-1.1,0c-0.4-0.6-1.3-1-1.4-1.6c-0.1-0.5,0.9-1,1.4-1.5c2.6-2.6,5.3-5.3,8-8c0.4-0.4,0.4-0.6,0-1c-3-3-6-6-9-8.9
		c-0.4-0.4-0.6-0.7,0-1.1s1-1.3,1.6-1.4c0.4-0.1,1,0.9,1.5,1.4c2.6,2.6,5.3,5.3,8,8c0.4,0.4,0.6,0.4,1.1,0c3-3,6-6,8.9-9
		c0.4-0.4,0.6-0.5,1.1,0c0.4,0.6,1.3,1,1.4,1.6c0.1,0.6-0.9,1-1.4,1.5c-2.6,2.6-5.3,5.3-8,8c-0.4,0.4-0.4,0.6,0,1c3,3,6,6,9,8.9
		c0.5,0.5,0.4,0.8,0,1.1s-0.8,0.8-1.1,1.1C83.6,422.5,83.5,422.6,83.4,422.7z"/>
	<path class="st0" d="M61.6,440.9c0-2.3,0-4.5,0-6.8c0-0.6,0.1-0.9,0.8-0.9c3,0,6.1,0,9,0c0.6,0,0.8,0.1,0.8,0.8c0,4.5,0,9,0,13.5
		c0,0.6-0.1,0.8-0.8,0.8c-3,0-6.1,0-9,0c-0.6,0-0.9-0.1-0.9-0.8C61.6,445.4,61.6,443.2,61.6,440.9z"/>
	<path class="st0" d="M88.8,440.9c0,2.3,0,4.5,0,6.8c0,0.6-0.1,0.8-0.8,0.8c-3.1,0-6.1,0-9.2,0c-0.5,0-0.6-0.1-0.6-0.7
		c0-4.6,0-9.1,0-13.7c0-0.6,0.2-0.7,0.7-0.7c3.1,0,6.1,0,9.1,0c0.6,0,0.8,0.2,0.8,0.8C88.8,436.4,88.8,438.7,88.8,440.9z"/>
	<path class="st0" d="M45.1,443.2c0-1.6,0-3.1,0-4.7c0-0.5,0.1-0.7,0.7-0.7c3.1,0,6.1,0,9.3,0c0.6,0,0.8,0.2,0.8,0.7
		c0,3.1,0,6.1,0,9.1c0,0.5-0.1,0.8-0.7,0.8c-3.1,0-6.2,0-9.3,0c-0.5,0-0.6-0.1-0.6-0.6C45.2,446.3,45.1,444.7,45.1,443.2z"/>
	<path class="st0" d="M99.9,448.4c-1.5,0-3,0-4.4,0c-0.6,0-0.8-0.1-0.8-0.7c0-3.1,0-6.1,0-9.1c0-0.6,0.2-0.8,0.8-0.8c3,0,6.1,0,9,0
		c0.6,0,0.9,0.2,0.9,0.9c0,3,0,6,0,9c0,0.6-0.2,0.9-0.9,0.9C103,448.4,101.4,448.4,99.9,448.4z"/>
</g>
<path class="st0" d="M274.8,541.4c-0.6-2.7-1.7-5.1-3.1-7.3c-0.8,0.8-2.1,1.4-3.6,1.4c-5.1,0-6.4-5.7-4.1-8.8
	c-2.1-1.2-4.3-2.2-6.7-2.8c-0.2,2.5-2,4.8-5.2,4.8c-3.3-0.1-5-2.5-5.2-5.1c-2.9,0.6-5.6,1.7-8,3.3c1.9,3.1,0.5,8.4-4.4,8.4
	c-1.2,0-2.2-0.3-3-0.9c-1.2,2.2-2.2,4.5-2.8,6.9c6.1,0.6,6.1,10.1,0,10.7c0.6,2.6,1.6,4.9,2.9,7.1c0.9-1,2.2-1.8,3.9-1.8
	c5.4,0,6.6,6.5,3.6,9.4c2.4,1.5,5,2.6,7.8,3.1c0-2.7,1.8-5.2,5.2-5.2c3.3,0,5.1,2.5,5.2,5.1c3-0.7,5.9-2.1,8.3-3.8
	c-2.6-3-1.3-9,3.9-9c1.3,0,2.3,0.3,3.1,0.9c0.9-1.8,1.7-3.7,2.1-5.7C268.7,551.6,268.7,541.9,274.8,541.4z M253.1,553.8
	c-4.9,0.8-9-3.3-8.3-8.3c0.5-2.9,2.8-5.4,5.8-5.8c4.9-0.8,9,3.4,8.2,8.3C258.4,551,256,553.3,253.1,553.8z"/>
<g>
	<g>
		<path class="st0" d="M394,701.6c0.8-1.5,0.7-3.5-0.4-4.9c-7.6-10.4-6.6-24.8,2.9-33.9c4.7-4.6,10.5-7,17.3-7.5v10.2
			c7.4-4.3,14.6-8.5,22-12.8c-7.5-4.3-14.7-8.5-22.2-12.7v9.2c-0.7,0.1-0.6,0-1.5,0.1c-7.4,0.7-14.5,3.8-19.9,9.1
			c-7.7,7.7-10.7,17.2-9.1,28.1c1,7.1,4.2,13.1,9.4,18L394,701.6z"/>
	</g>
	<g>
		<path class="st0" d="M417,694.5h-12.4v-2.9l5.7-7.3c0.4-0.6,0.7-1,1-1.5c0.2-0.4,0.5-0.9,0.7-1.3c0.2-0.4,0.3-0.7,0.4-1
			c0.1-0.3,0.1-0.6,0.1-1c0-1-0.2-1.7-0.5-2.2c-0.3-0.6-0.8-0.8-1.4-0.8c-0.4,0-0.7,0.1-1,0.2c-0.2,0.2-0.5,0.4-0.7,0.7
			c-0.2,0.3-0.3,0.7-0.4,1.1c-0.1,0.4-0.1,1-0.1,1.4h-4.1c0-1,0.1-1.8,0.4-2.7s0.7-1.6,1.3-2.2c0.6-0.6,1.3-1.1,2-1.5
			c0.7-0.4,1.7-0.6,2.7-0.6c1,0,1.8,0.1,2.5,0.4c0.7,0.2,1.3,0.7,1.8,1.2s0.9,1.1,1.1,1.9c0.2,0.7,0.4,1.6,0.4,2.5
			c0,0.7-0.1,1.4-0.2,2.1c-0.2,0.7-0.4,1.3-0.8,2c-0.4,0.7-0.7,1.3-1.3,2c-0.5,0.7-1,1.5-1.5,2.2l-2.7,3.9h7.1L417,694.5L417,694.5z
			"/>
		<path class="st0" d="M431.7,685.8c0,1.6-0.1,2.9-0.4,4s-0.7,2.1-1.3,2.8c-0.6,0.7-1.2,1.3-1.9,1.6c-0.7,0.4-1.6,0.5-2.4,0.5
			c-1,0-1.7-0.2-2.4-0.5c-0.7-0.4-1.4-0.9-1.9-1.6c-0.6-0.7-1-1.7-1.3-2.8c-0.3-1.1-0.4-2.4-0.4-4v-3.7c0-1.6,0.1-2.9,0.4-4
			c0.3-1.1,0.7-2.1,1.3-2.8c0.6-0.7,1.2-1.3,1.9-1.6c0.7-0.3,1.6-0.5,2.4-0.5c1,0,1.7,0.2,2.4,0.5c0.7,0.4,1.4,0.9,1.9,1.6
			c0.6,0.7,1,1.7,1.3,2.8c0.3,1.1,0.4,2.4,0.4,4V685.8z M427.6,681.5c0-1-0.1-1.7-0.1-2.4c-0.1-0.6-0.2-1.2-0.4-1.5
			c-0.2-0.4-0.4-0.7-0.6-0.9c-0.2-0.2-0.6-0.2-0.9-0.2s-0.6,0.1-0.9,0.2c-0.3,0.1-0.5,0.4-0.6,0.9c-0.2,0.4-0.3,1-0.4,1.5
			c-0.1,0.6-0.1,1.4-0.1,2.4v4.9c0,1,0.1,1.7,0.1,2.4c0.1,0.6,0.2,1.2,0.4,1.5c0.2,0.4,0.4,0.7,0.6,0.9c0.2,0.2,0.6,0.2,0.9,0.2
			s0.6-0.1,0.9-0.2c0.2-0.2,0.4-0.4,0.6-0.9c0.2-0.4,0.3-1,0.4-1.5c0.1-0.6,0.1-1.4,0.1-2.4L427.6,681.5L427.6,681.5z"/>
	</g>
</g>
<path class="st0" d="M430.2,572.7h-35.6c-2.5,0-4.5-2-4.5-4.5V535c0-2.5,2-4.5,4.5-4.5h35.6c2.5,0,4.5,2,4.5,4.5v33.3
	C434.7,570.7,432.6,572.7,430.2,572.7z M418,566.5h6.4l-9.4-29.7h-5.5l-9.3,29.7h6.3l1.6-6.1h8.2L418,566.5z M412.3,544.8l2.8,10.5
	h-5.5L412.3,544.8z"/>
<g>
	<g>
		<path class="st0" d="M538.7,573.5c-0.4,0-0.9-0.1-1.2-0.5c-0.7-0.7-0.7-1.7,0-2.3l40.4-40.4c0.7-0.7,1.7-0.7,2.3,0
			c0.7,0.7,0.7,1.7,0,2.4L539.9,573C539.5,573.3,539.1,573.5,538.7,573.5z"/>
	</g>
	<g>
		<path class="st0" d="M579.1,573.5c-0.4,0-0.9-0.1-1.2-0.5l-40.3-40.4c-0.7-0.7-0.7-1.7,0-2.4s1.7-0.7,2.4,0l40.3,40.3
			c0.7,0.7,0.7,1.7,0,2.3C579.9,573.3,579.5,573.5,579.1,573.5z"/>
	</g>
</g>
<g>
	<polygon class="st0" points="230.1,664.8 222.4,664.8 222.4,645.2 241.1,645.2 241.1,652.9 230.1,652.9 	"/>
	<polygon class="st0" points="283.2,664.8 275.5,664.8 275.5,652.9 264.5,652.9 264.5,645.2 283.2,645.2 	"/>
	<polygon class="st0" points="241.1,699.4 222.4,699.4 222.4,679.8 230.1,679.8 230.1,691.6 241.1,691.6 	"/>
	<polygon class="st0" points="283.2,699.4 264.5,699.4 264.5,691.6 275.5,691.6 275.5,679.8 283.2,679.8 	"/>
</g>
<g>
	<path class="st0" d="M85.2,883c0.4,0,0.7,0.1,1,0.4c0.6,0.6,0.6,1.5,0,2l-20.6,20.7l20.6,20.7c0.6,0.6,0.6,1.5,0,2
		c-0.6,0.6-1.5,0.6-2,0l-21.6-21.6c-0.6-0.6-0.6-1.5,0-2l21.6-21.7C84.5,883.1,84.9,883,85.2,883z"/>
</g>
<g>
	<path class="st0" d="M865.6,929.4c-0.4,0-0.7-0.1-1-0.4c-0.6-0.6-0.6-1.5,0-2l20.6-20.7l-20.6-20.7c-0.6-0.6-0.6-1.5,0-2
		c0.6-0.6,1.5-0.6,2,0l21.6,21.6c0.6,0.6,0.6,1.5,0,2L866.6,929C866.3,929.3,865.9,929.4,865.6,929.4z"/>
</g>
<g>
	<circle class="st0" cx="417.6" cy="774.4" r="4.6"/>
	<circle class="st0" cx="417.6" cy="792" r="4.6"/>
	<circle class="st0" cx="417.6" cy="809.7" r="4.6"/>
</g>
<g>
	<polygon class="st0" points="58.7,644.4 66.5,644.4 66.5,664 47.8,664 47.8,656.2 58.7,656.2 	"/>
	<polygon class="st0" points="89.9,644.4 97.7,644.4 97.7,656.2 108.6,656.2 108.6,664 89.9,664 	"/>
	<polygon class="st0" points="47.8,679 66.5,679 66.5,698.5 58.7,698.5 58.7,686.7 47.8,686.7 	"/>
	<polygon class="st0" points="89.9,679 108.6,679 108.6,686.7 97.7,686.7 97.7,698.5 89.9,698.5 	"/>
</g>
<g>
	<g>
		<path class="st0" d="M560.6,811c-13.3,0-24.1-10.8-24.1-24.1c0-13.3,10.8-24.1,24.1-24.1c13.3,0,24.1,10.8,24.1,24.1
			C584.7,800.2,573.9,811,560.6,811z M560.6,766.6c-11.2,0-20.3,9.1-20.3,20.3c0,11.2,9.1,20.3,20.3,20.3c11.2,0,20.3-9.1,20.3-20.3
			C580.9,775.7,571.8,766.6,560.6,766.6z"/>
	</g>
	<g>
		<g>
			<path class="st0" d="M557.9,776c0-0.4,0.1-0.8,0.2-1.1c0.1-0.3,0.3-0.6,0.5-0.9c0.2-0.2,0.5-0.4,0.9-0.5c0.3-0.1,0.7-0.2,1.1-0.2
				s0.8,0.1,1.1,0.2c0.3,0.1,0.7,0.3,0.9,0.5s0.4,0.5,0.5,0.9c0.1,0.3,0.2,0.7,0.2,1.1c0,0.4-0.1,0.8-0.2,1.1
				c-0.1,0.3-0.3,0.6-0.5,0.9c-0.2,0.2-0.5,0.4-0.9,0.5c-0.3,0.1-0.7,0.2-1.1,0.2s-0.8-0.1-1.1-0.2c-0.3-0.2-0.7-0.3-0.9-0.5
				s-0.4-0.5-0.5-0.9C557.9,776.8,557.9,776.5,557.9,776z M563.2,800.5h-5.1v-16.9h5.1V800.5z"/>
		</g>
	</g>
</g>
<g>
	<g>
		<path class="st0" d="M75.9,531.1c0,0.3,0.3,0.6,0.6,0.6c5.8,0.1,11.5,2.6,15.2,7c1.4,1.7,2.5,3.5,3.3,5.5
			c2.9,7.2,1.4,15.4-4.3,21.5l-0.1,0.1c-11.1,10.3-27.3,5.7-32.4-6.7c-0.5-1.1-1.7-1.8-2.8-1.4c-1.3,0.4-2,1.8-1.5,3
			c2.5,6,7.1,10.8,13.1,13.3c3.1,1.3,6.3,2,9.6,2c6,0,12.1-2.3,17.1-6.9l0.1-0.1c7.2-7.5,9-17.7,5.5-26.6c-1-2.5-2.4-4.8-4.1-6.8
			c-4.7-5.4-11.5-8.6-18.7-8.6c-0.3,0-0.6,0.3-0.6,0.6L75.9,531.1L75.9,531.1z"/>
	</g>
	<path class="st0" d="M55.9,530l16.2,9.4c0.1,0.1,0.3,0,0.3-0.2v-6.6v-7.1v-5.1c0-0.1-0.1-0.2-0.2-0.2l-16.3,9.4
		C55.8,529.8,55.8,530,55.9,530z"/>
</g>
<g>
	<g>
		<circle class="st0" cx="884.4" cy="41.2" r="16.2"/>
	</g>
	<g>
		<circle class="st0" cx="846" cy="56.6" r="8"/>
	</g>
	<g>
		<circle class="st0" cx="866.3" cy="79.5" r="8"/>
	</g>
	<g>
		<path class="st0" d="M871.3,42"/>
	</g>
	<g>
		<polygon class="st0" points="849.6,53.2 872.9,41.4 873.1,45.2 849.8,56.9 		"/>
	</g>
	<g>
		<polygon class="st0" points="848.7,58.6 867.9,76.5 864.4,77.9 845.3,60.1 		"/>
	</g>
</g>
<g>
	<path class="st0" d="M868,205.3c4.9,0,9.8,0.1,14.7,0c5-0.1,8.2-4.7,6.6-9.4c-0.9-2.5-3.2-4.2-5.9-4.3c-0.6,0-1.1,0.1-1.7-0.1
		c-0.8-0.1-1.2-0.6-1.2-1.3c0-0.8,0.4-1.3,1.2-1.3c2.7,0,5.4-0.1,8.1,0.1c1.5,0.1,2.5,1.3,2.6,2.8c0.1,2.5,0.2,5.1,0,7.7
		c-0.3,4.9-4.4,8.5-9.5,8.6c-9.9,0.1-19.8,0.1-29.7,0c-5.7-0.1-9.7-4.1-9.7-9.7c-0.1-9.4-0.1-18.8,0-28.3c0-5.7,4.1-9.7,9.8-9.7
		c3.7,0,7.3,0,11,0c1,0,1.9,0.1,1.9,1.3c-0.1,1.3-1,1.3-1.9,1.3c-3.6,0-7.1,0-10.7,0c-4.5,0-7.3,2.8-7.3,7.3c0,9.2,0,18.4,0,27.7
		c0,4.4,2.8,7.2,7.2,7.2C858.2,205.3,863.1,205.3,868,205.3z"/>
	<path class="st0" d="M886.2,180.1c-0.9-1.9-1.7-3.4-2.3-5c-0.4-1-0.9-1.3-2-1.2c-5,0.6-8.8,3.2-12,6.9c-3.2,3.7-5.5,8-7.3,12.6
		c-0.2,0.4-0.3,0.8-0.5,1.2c-0.2,0.4-0.2,1.1-0.9,0.9c-0.5-0.2-0.4-0.7-0.3-1.1c0.2-1.7,0.3-3.5,0.6-5.1c0.8-5,2.3-9.8,5-14.1
		c2.9-4.6,6.9-7.9,12.2-9.4c0.9-0.3,0.9-0.5,0.6-1.2c-0.5-1.1-0.9-2.2-1.4-3.3c-0.3-0.6-0.1-0.9,0.6-0.7c4.9,1.5,9.7,2.9,14.6,4.4
		c0.5,0.2,0.6,0.4,0.4,0.9C891,170.5,888.6,175.1,886.2,180.1z"/>
</g>
<g>
	<path class="st0" d="M837.1,314.9c0.1-3.4,1.7-6,4.9-7.4c3.2-1.5,6.3-1,9,1.3c0.6,0.5,1,0.6,1.6,0.1c1.4-1,2.9-2,4.5-3
		c0.6-0.4,0.7-0.6,0.4-1.2c-3-6.4-0.4-13.8,5.7-17.2c1.3-0.7,2.7-1.2,4.1-1.3c0.5-0.1,0.6-0.2,0.6-0.7c0-2.4,0-4.7,0-7.1
		c0-0.5-0.1-0.7-0.7-0.8c-3.4-1-5.5-3.3-6.1-6.9c-0.7-4.4,2.5-8.7,7-9.4c4.4-0.7,8.8,2.5,9.4,6.9c0.7,4.8-2.2,8.7-6.9,9.6
		c-0.4,0.1-0.5,0.3-0.5,0.7c0,2.3,0,4.6,0,7c0,0.6,0.3,0.7,0.7,0.7c5.3,0.7,9,3.6,10.9,8.5c1.3,3.4,1.1,6.9-0.4,10.2
		c-0.3,0.6-0.1,0.7,0.3,1.1c1.6,1,3.3,2.1,4.9,3.2c0.4,0.3,0.7,0.3,1.1-0.1c2.5-2.5,6.3-3,9.4-1.4c3.1,1.6,5,5,4.6,8.5
		c-0.4,3.5-2.9,6.4-6.4,7.1c-3.1,0.7-5.8-0.1-7.9-2.4c-2.2-2.4-2.8-5.2-1.8-8.4c0.2-0.7,0.1-1.1-0.5-1.6c-1.6-1-3.1-1.9-4.6-3
		c-0.4-0.3-0.7-0.4-1.1,0.1c-5.2,5.6-13.3,5.9-18.9,0.8c-0.4-0.4-0.8-1.2-1.3-1.2c-0.6,0-1.2,0.6-1.7,1c-1.2,0.8-2.4,1.6-3.7,2.4
		c-0.5,0.3-0.6,0.6-0.4,1.2c1.6,4.4-0.7,9.4-5.2,10.8c-4.5,1.5-9.3-1-10.6-5.5C837.2,316.5,837.1,315.7,837.1,314.9z"/>
</g>
<path class="st0" d="M902.6,549.5c-0.1,5.6-2.4,10.1-6.2,14c-0.7,0.7-0.9,1.2-0.7,2.2c1,5.3,1.9,10.6,2.9,15.9
	c0.1,0.2,0.1,0.5,0.2,0.7c0.1,0.3,0.1,0.5-0.2,0.7c-0.3,0.2-0.5,0-0.7-0.2c-1.5-1-3.1-2.1-4.6-3c-3.7-2.4-7.4-4.9-11-7.3
	c-0.5-0.3-0.9-0.4-1.5-0.2c-11.3,2.7-22.1,1.9-32.3-3.8c-4.9-2.7-9-6.5-11.2-11.9c-3.1-7.7-1.3-14.5,4.1-20.6
	c4.5-4.9,10.2-7.8,16.7-9.4c10.4-2.6,20.6-1.8,30.4,3c5.3,2.6,9.6,6.3,12.3,11.6C902,543.8,902.7,546.5,902.6,549.5z M849.3,544.1
	c-2.7,0-4.9,2.2-4.9,4.9s2.2,4.9,4.9,4.9s4.9-2.2,4.9-4.9C854.3,546.4,852,544.1,849.3,544.1z M869.2,544.1c-2.7,0-4.9,2.2-4.9,4.9
	s2.2,4.9,4.9,4.9c2.7,0,4.9-2.2,4.9-4.9C874.1,546.4,871.9,544.1,869.2,544.1z M889,544.1c-2.7,0-4.9,2.2-4.9,4.9s2.2,4.9,4.9,4.9
	s4.9-2.2,4.9-4.9C894,546.4,891.9,544.1,889,544.1z"/>
<g>
	<g>
		<path class="st0" d="M869.3,454.6c-18.1,0-32.8-14.7-32.8-32.8c0-18.1,14.7-32.8,32.8-32.8s32.8,14.7,32.8,32.8
			C902.1,439.9,887.3,454.6,869.3,454.6z M869.3,391.8c-16.5,0-30,13.5-30,30s13.5,30,30,30s30-13.5,30-30S885.8,391.8,869.3,391.8z
			"/>
	</g>
	<path class="st0" d="M863.2,402.5c0.3,0.1,1.9,1.9,1.9,1.9v1.6c0,0-0.9-0.5,1.5,0s2.7,0.4,2.7,0.4s2.7,0,2.7-0.5c0-0.5,0-1.9,0-1.9
		s1.9-1.3,2.1-1.6c0.2-0.3,0.1-0.6,0-1.2c-0.1-0.6-0.8-1.6-0.8-1.6s0.1-0.1-2.5,0c-2.7,0.1-2.7,0.1-2.7,0.1l-0.8-1.2
		c0,0,0.7-1.9-1.3,0c-1.9,1.8-8.2,1.7-4.8,2.1l-0.6,3l3.5-2.1L863.2,402.5z"/>
	<path class="st0" d="M851.7,410c-0.7,0.3-3,4.9-3,4.9v2l-1.4,3.4l0.7,2.3l0.3,1.6l0.5,2.1c0,0,0.7,1.6,1.2,1.9
		c0.5,0.2,1.6,0.9,1.6,0.9s0.1,1.3,0.5,1.3c0.5,0,1,0.7,1,0.7l0.5,1.4l2,2.4c0,0,1-0.1,1.4,1c0.4,1.1,0.4,1.1,0.4,1.1s0.5,1.4,0,2.1
		s-0.8,1.3-0.8,1.3l3.3,3l2.7,1c0,0,0.5,0.9,2.8,1.4c2.3,0.5,2.3,0.5,2.3,0.5l2.9-0.5l2.1-1.9l2.6-0.1l1,0.5l1-2.7l0.4-3.8
		c0,0,0.1-1.4,0-1.6c-0.1-0.2-0.3-0.2-0.6-0.5c-0.3-0.3-1-1-1-1l-1-0.5l-2.7-2.5l-2.1-1l-3.4,0.7l-2.1-0.2c0,0-1.2,0.9-1.6,1
		c-0.5,0.1-1.1,0.3-1.1,0.3l-1.4,0.2c0,0-0.8,0.5-2,0.5c-1.2,0-1.9,0-1.9,0s0.1,0.2-0.5-0.2s-0.6-0.4-0.6-0.4l-0.3-0.6l-0.5-1.1
		c0,0,0.2-0.9,0-1.4s-0.2,0.2-0.2-0.5c0-0.7-2,1,0-0.7c2-1.6,3.8-2.1,3.8-2.1l2.7-1.4l0.1-1.8v-2.5l-0.2-1.5c0,0-0.5-2.8,0-3.7
		s0.1-1.5,0.1-1.5v-1.6c0,0-1,0.3-2.5-1.8c-1.4-2.1,1.6-0.5-1.1-2.1c-2.7-1.5-3-1.5-3-1.5s-1.6,0.4-2.5,0.6
		c-0.9,0.2-1.6,1.4-1.6,1.4l0.3,2.5"/>
	<path class="st0" d="M889.3,407.8l1.4,1.6l0.4,1.9l0.5,1.3l0.1,0.8l-0.3,1.6l1,3.4l1.2,2.5c0,0-0.3-0.8,0.4,2.1
		c0.7,2.9,0,0-0.4,2.3c-0.4,2.3,0.1-0.5-1.1,3.4c-1.2,3.8,0-0.5-0.5,1.5s0,0-1.9,3c-1.9,3,0.1-0.4-2.1,1.2c-2.2,1.6,0,0-1.2,1.1
		c-1.2,1.1,0,0-2.1,0.5c-2.1,0.5,0,0-1.4-0.4c-1.4-0.4-0.8-1.9-0.8-1.9s6.7-4.2,6-6.5c-0.6-2.3-6.5,3.9-9.3,1.9s0.7,0.4-1.8-0.5
		s0,0-2.1-0.8c-2.1-0.8,0,0-3.6-2.1c-3.6-2.1,0,0-1.1-1.9c-1.1-1.9,0,0-0.5-3.1s-3.6,0.1-0.3-3.3c2.3-2.3-0.1,0.4,0.4-0.8
		c0.5-1.2-0.3,0.4,0.8-1.6c1.1-2-0.1,0.7,0.5-1c0.5-1.8,0,0,0.5-1.1c0.5-1.1,0.5-0.5,0.5-0.5l3.8,3.4c0,0,3.2-2.5,3.8-3.2
		c0.5-0.7-5.9-3.4-4.1-4.7c1.9-1.4,2.9-1,3.2-1.1l2.1-0.1h2.2l0.6-0.8l1.6,0.1l1.8,0.5l1.4,0.1h0.8L889.3,407.8z"/>
</g>
<g>
	<circle class="st0" cx="891.5" cy="649.3" r="11.5"/>
	<circle class="st0" cx="846" cy="670.9" r="11.5"/>
	<circle class="st0" cx="888.7" cy="699.3" r="11.5"/>
	<path class="st0" d="M858.3,666.5l-0.2-0.5c-0.2-0.5-0.1-1.1,0.4-1.4l19.3-10.4c0.5-0.2,1.1-0.1,1.4,0.4l0.2,0.5
		c0.2,0.5,0.1,1.1-0.4,1.4L859.7,667C859.2,667.2,858.6,667.1,858.3,666.5z"/>
	<path class="st0" d="M858.1,677.9l0.3-0.5c0.3-0.5,0.9-0.5,1.4-0.2l17.7,12.5c0.5,0.3,0.5,0.9,0.2,1.4l-0.3,0.5
		c-0.3,0.5-0.9,0.5-1.4,0.2l-17.7-12.5C857.9,678.9,857.7,678.3,858.1,677.9z"/>
</g>
<path class="st0" d="M270.3,61.1l-47.5,27.3c-0.1,0.1-0.2,0-0.2-0.1V33.6c0-0.1,0.1-0.2,0.2-0.1l47.4,27.4
	C270.4,60.8,270.4,61,270.3,61.1z"/>
<g>
	<path class="st0" d="M214.8,210.5v-49.6c0-0.1,0.1-0.3,0.3-0.3h14.3c0.2,0,0.3,0.1,0.3,0.3v49.6"/>
	<path class="st0" d="M242.9,210.5v-49.6c0-0.1,0.1-0.3,0.3-0.3h14.3c0.2,0,0.3,0.1,0.3,0.3v49.6"/>
</g>
<g>
	<path class="st0" d="M264.8,296.7l-44.3,25.5c-0.1,0.1-0.2,0-0.2-0.1v-51c0-0.1,0.1-0.2,0.2-0.1l25.9,14.9l18.3,10.6
		C264.9,296.4,264.9,296.6,264.8,296.7z"/>
	<path class="st0" d="M271.1,322.1L271.1,322.1c-0.4,0-0.7-0.4-0.7-0.7v-49.8c0-0.4,0.4-0.7,0.7-0.7l0,0c0.4,0,0.7,0.4,0.7,0.7v49.8
		C271.9,321.7,271.5,322.1,271.1,322.1z"/>
</g>
<g>
	<path class="st0" d="M268.8,423.8L220,451.9c-0.1,0.1-0.2,0-0.2-0.2v-56.2c0-0.1,0.1-0.2,0.2-0.2l28.5,16.4l20.2,11.7
		C268.8,423.5,268.8,423.7,268.8,423.8z"/>
	<path class="st0" d="M295,423.8l-48.7,28.1c-0.1,0.1-0.2,0-0.2-0.2v-11.5c0-0.2,0.1-0.3,0.2-0.4l26.8-15.9c0.3-0.2,0.3-0.5,0-0.7
		l-26.8-16c-0.2-0.1-0.2-0.2-0.2-0.4v-11.3c0-0.1,0.1-0.2,0.2-0.2l48.7,28.1C295.1,423.5,295.1,423.7,295,423.8z"/>
</g>
<path class="st0" d="M706.4,41.3c1.2-1,2.6-1.8,4.2-2.1c2.1-0.3,3.9,0.2,5.6,1.5c0.7,0.5,0.9,0.3,1.1-0.4c1-2.9,2.9-4.9,6-5.7
	c4.6-1.2,9.3,1.8,10.2,6.5c0.2,1.3,0.8,2.5,1.5,3.6c2.4,3.2,4.6,6.4,6.9,9.6c0.5,0.7,1.2,1.5,1.8,2.1c3.7,4,5.3,8.6,3.8,13.9
	c-1.5,5.4-4.7,9.4-10.4,10.9c-9.1,2.4-17.8-3.3-19.1-12.6c0-0.2-0.1-0.4-0.1-0.7c0-0.7-0.1-1.1-1-1.3c-1-0.2-1.4-1-1.3-2.2
	c0-0.7,0-1.3,0.1-1.9c0-0.4-0.1-0.6-0.5-0.4c-1.1,0.4-2.1,0.8-3.3,1c-1.4,0.1-2.7-0.2-4-0.8c-0.6-0.3-0.9-0.3-0.8,0.5
	c0.1,0.9,0,1.8-0.1,2.7c-0.1,0.7-0.4,1.2-1.1,1.4c-0.8,0.1-1,0.7-1,1.4c-0.4,3.6-1.8,6.7-4.4,9.3c-4.2,4.1-10.9,5.4-16.2,3.2
	c-5.5-2.4-9.1-7.8-9.1-13.9c0-4,1.3-7.6,4.1-10.4c2.1-2.2,3.7-4.8,5.4-7.2c1.4-1.8,2.6-3.7,4-5.6c0.4-0.6,0.7-1.2,0.8-1.9
	c0.7-4.4,4.2-7.6,8.4-7.5c3.9,0.1,7.1,2.6,8.1,6.3C706.1,40.8,706.1,41.1,706.4,41.3z M744.1,67.1c0-6.1-5-11.1-11.1-11.1
	c-6-0.1-11.1,4.9-11.1,10.9c0,6.3,4.8,11.2,11.1,11.2C739.1,78.2,744.1,73.2,744.1,67.1z M690.7,78.2c6.1,0,11.1-5,11.1-11.1
	c0-6.1-5-11.1-11.1-11.1c-6.1,0-11.1,5-11.1,11.1C679.6,73.2,684.5,78.2,690.7,78.2z M711.5,50.9c-2.4,0-4.3,2-4.3,4.3
	c0.1,2.4,2,4.3,4.3,4.3c2.4,0,4.2-2.1,4.2-4.4C715.8,52.7,713.9,50.9,711.5,50.9z"/>
<g>
	<g>
		
			<ellipse transform="matrix(4.976301e-02 -0.9988 0.9988 4.976301e-02 501.1565 895.8243)" class="st0" cx="721.4" cy="184.5" rx="1.3" ry="1.3"/>
		
			<ellipse transform="matrix(4.976301e-02 -0.9988 0.9988 4.976301e-02 477.0385 870.6359)" class="st0" cx="696.1" cy="184.6" rx="1.2" ry="1.2"/>
	</g>
	<path class="st0" d="M725.1,171.6c7.1,9,5.7,22.1-3.3,29.2c-9,7.1-22.1,5.7-29.2-3.3c-7.1-9-5.7-22.1,3.3-29.2
		C704.9,161.2,717.9,162.6,725.1,171.6z M698.6,171.7c-7.1,5.6-8.3,16-2.6,23c5.6,7.1,16,8.3,23,2.6c7.1-5.6,8.3-16,2.6-23
		C716,167.3,705.6,166.1,698.6,171.7z"/>
	<path class="st0" d="M688.2,171.8l8.2-7.2c0.3-0.3,0.1-0.9-0.4-1l-10.1-3.4c-0.4-0.1-0.7,0.2-0.6,0.5l2,10.5
		C687.4,171.8,688,172.1,688.2,171.8z"/>
	<path class="st0" d="M729.5,197.4l-8.3,7.1c-0.3,0.3-0.1,0.9,0.4,1l10.1,3.4c0.4,0.1,0.7-0.1,0.6-0.5l-1.8-10.5
		C730.3,197.5,729.8,197.2,729.5,197.4z"/>
	<g>
		<polygon class="st0" points="711,182.1 702.3,184.5 708.7,190.9 		"/>
		
			<rect x="711.8" y="177" transform="matrix(0.7073 -0.7069 0.7069 0.7073 80.5268 556.452)" class="st0" width="0.8" height="7.9"/>
	</g>
</g>
<path class="st0" d="M714.3,282.7c-0.1,0.6-0.1,1.2-0.4,1.7c-0.4,0.7-0.2,1.2,0.2,1.7c3.2,4.1,6.4,8.2,9.6,12.2
	c0.3,0.3,0.5,0.4,1,0.3c2.3-0.9,4.5-0.6,6.4,1c0.5,0.4,0.8,0.2,1.1-0.1c5-5.7,10.1-11.4,15.1-17.1c0.4-0.4,0.5-0.7,0.1-1.2
	c-1.5-2.6-1.1-5.7,1-7.8c2-2,5.2-2.5,7.7-1c2.5,1.5,3.8,4.3,3,7.2c-0.7,2.7-3.1,4.8-6,4.8c-0.7,0-1.4,0-2-0.3
	c-0.6-0.3-1-0.1-1.5,0.4c-5.2,6-10.5,11.9-15.8,17.9c-0.4,0.4-0.5,0.8-0.4,1.3c0.6,4.1-2.9,7.8-7,7.3c-4.4-0.5-7-5.1-5.1-9.1
	c0.3-0.7,0.2-1.2-0.2-1.7c-3.2-4-6.3-7.9-9.3-12c-0.4-0.5-0.6-0.6-1.3-0.3c-1.7,0.8-3.4,0.7-5.1,0c-0.7-0.3-0.8-0.2-1.2,0.4
	c-3.8,5.7-7.6,11.4-11.4,17.1c-0.4,0.6-0.3,0.9,0.1,1.4c1.8,2.4,1.7,5.5-0.2,7.8c-1.7,2.2-4.8,3-7.4,1.9c-2.7-1.1-4.3-3.9-4-6.7
	c0.3-2.8,2.5-5.1,5.3-5.5c0.8-0.1,1.6-0.1,2.4,0c0.5,0.1,0.6,0.1,0.9-0.4c4.1-6.1,8-12.1,12.2-18.1c0.3-0.5,0.2-0.8,0-1.3
	c-1-2.5-0.6-4.9,1.2-6.9c1.8-1.9,4.1-2.5,6.6-1.8c2.7,0.8,4.1,2.7,4.5,5.4C714.3,281.7,714.4,282.2,714.3,282.7z M703.2,281.4
	c-0.4,2.6,1.6,5.1,4.2,5.3s5.1-1.6,5.3-4.2c0.4-2.6-1.6-5.1-4.2-5.3C705.9,276.9,703.5,278.8,703.2,281.4z M753.6,273.1
	c-2.6-0.3-5,1.6-5.3,4.2c-0.3,2.6,1.6,5,4.2,5.3c2.6,0.3,5-1.6,5.3-4.2C758,275.9,756.1,273.5,753.6,273.1z M731.9,305.1
	c0.3-2.6-1.7-5-4.4-5.3c-2.6-0.3-5.1,1.7-5.3,4.3c-0.3,2.6,1.7,5,4.4,5.3C729.2,309.6,731.6,307.6,731.9,305.1z M692.4,311.1
	c0.3-2.6-1.6-5.1-4.2-5.3c-2.6-0.3-5,1.6-5.3,4.2c-0.4,2.6,1.6,5,4.2,5.3C689.7,315.6,692.1,313.7,692.4,311.1z"/>
<g>
	<g>
		<g class="st1">
			
				<ellipse transform="matrix(0.9601 -0.2797 0.2797 0.9601 -157.0205 221.2198)" class="st0" cx="696.6" cy="660.8" rx="1.6" ry="1.6"/>
			<path class="st0" d="M698,665.5l-4.3-0.9c-0.1,0-0.3,0-0.3,0.1l0.7,7.9c0,0.2,0.4,0.2,0.4,0.1l3.7-7
				C698.2,665.6,698.1,665.5,698,665.5z"/>
			<path class="st0" d="M695.5,656.7l3.8,0.8c0.3,0.1,0.5-0.2,0.5-0.4l-0.4-7.9c0-0.4-0.6-0.5-0.8-0.2l-3.4,7.1
				C695.1,656.4,695.2,656.7,695.5,656.7z"/>
		</g>
		<path class="st0" d="M678.7,648.8l8.9-8.4c0.3-0.3,0.1-1-0.5-1.1l-11.5-3.3c-0.4-0.1-0.8,0.2-0.7,0.6l2.6,11.7
			C677.6,648.8,678.3,649.2,678.7,648.8z"/>
		<polygon class="st2" points="687.6,647.9 686.5,651.3 684.1,648.6 		"/>
		
			<rect x="703.2" y="647.2" transform="matrix(0.4842 -0.8749 0.8749 0.4842 -203.3538 950.462)" class="st2" width="2.7" height="1"/>
		
			<rect x="704.7" y="648.1" transform="matrix(0.4842 -0.8749 0.8749 0.4842 -203.3334 952.2231)" class="st2" width="2.7" height="1"/>
		
			<rect x="686.1" y="670" transform="matrix(0.8169 -0.5768 0.5768 0.8169 -261.2645 519.2394)" class="st2" width="2.2" height="2.2"/>
		<circle class="st2" cx="683.8" cy="659.8" r="0.9"/>
		<circle class="st2" cx="710.9" cy="656.6" r="0.9"/>
		<circle class="st2" cx="695.6" cy="644.7" r="0.9"/>
		<g>
			<path class="st0" d="M687,639.2c3.1-1.5,6.5-2.2,10-1.9c8.5,0.5,14.7,4.5,18.8,11.9c1.7,3.1,2.5,6.5,2.6,10
				c0,1.4-1.1,2.3-2.3,1.7c-0.7-0.3-1-0.9-1-1.5c-0.1-3.9-1.2-7.4-3.4-10.6c-4.4-6.3-12.2-9.3-19.6-7.7c-7.6,1.7-13.4,7.8-14.5,15.5
				c-1.4,8.6,3.2,17,11.3,20.4c0.1,0.1,0.3,0.1,0.4,0.2c1,0.5,1.3,1.3,1,2.2c-0.4,0.9-1.3,1.2-2.3,0.9c-2.6-1-4.8-2.4-6.8-4.3
				c-7.9-7.3-9.5-18.7-4-27.9c0.2-0.2,0.4-0.5,0.4-0.8c0.4,0.1,0.3,0.5,0.4,0.8c0.2,0.8,0.7,1,1.2,0.4c1.6-1.5,3.2-3,4.8-4.6
				c1-1,2.2-1.9,3.1-3C687.6,640,687.6,640.1,687,639.2C687,639.4,687,639.3,687,639.2z"/>
			<path class="st0" d="M687,639.2c1,0.7,1.1,0.9,0.2,1.7c-2.8,2.6-5.5,5.1-8.2,7.7c-0.6,0.6-1,0.4-1.3-0.4c-0.2-0.4,0-0.8-0.2-1
				c-0.8-3.4-1.5-6.8-2.3-10.3c-0.2-0.9,0.1-1,1-0.8c3.3,1,6.7,1.9,10,2.9C686.3,639.2,686.7,639.3,687,639.2z"/>
		</g>
	</g>
	<g>
		<path class="st0" d="M729.7,696.4c-1.5-0.2-2.1-0.9-2-2.4c0-0.8,0-1.6,0-2.4c-4.2,1.5-4.7,1.5-8.4,0c0,0.9,0,1.7,0,2.7
			c0,1.5-0.4,2.1-2,2.5c-0.1,0.7-0.1,1.5-0.3,2.2c-1.2,7.1-7.5,12.2-15,11.9c-6.7-0.2-12.7-5.7-13.5-12.6c-0.6-4.8,1-9.1,4.6-12.4
			c0.2-0.2,0.4-0.5,0.7-0.7c2.7-3.8,5.4-7.5,8.1-11.3c0.3-0.4,0.4-0.9,0.5-1.2c0.3-3.8,3.4-7,7.1-7.4c4.1-0.4,7.7,2.1,8.6,5.8
			c0.1,0.3,0.1,0.7,0.3,1c3.4-2.8,6.8-2.9,10.3-0.1c0.3-0.8,0.5-1.5,0.9-2.2c1.5-3.2,5-4.9,8.5-4.4c3.5,0.6,6.3,3.2,6.7,6.8
			c0.1,1,0.4,1.6,1,2.4c2.6,3.5,5,7,7.6,10.5c0.4,0.7,1,1.1,1.6,1.7c4.1,4.7,4.9,9.9,2.6,15.5c-2.5,5.6-7,8.6-13.1,8.6
			c-7.8,0.1-14.2-6-14.5-13.7C729.8,696.9,729.8,696.7,729.7,696.4z M715.4,696.3c0-6.8-5.5-12.4-12.4-12.4
			c-6.8-0.1-12.6,5.5-12.6,12.4c0,6.9,5.6,12.6,12.4,12.7C709.8,708.9,715.4,703.3,715.4,696.3z M756.8,696.3
			c0-6.8-5.5-12.4-12.4-12.4c-6.8,0-12.6,5.5-12.6,12.4c0,6.9,5.6,12.6,12.4,12.7C751.1,708.9,756.7,703.3,756.8,696.3z M723.5,681
			c-2.3,0-4.2,1.8-4.2,4.1c0,2.4,1.9,4.2,4.2,4.2c2.3,0,4.1-1.9,4.1-4.2C727.7,682.9,725.8,681,723.5,681z"/>
	</g>
</g>
<path class="st0" d="M719.7,437c-2.3,0-4.6,0.1-7,0c-0.9,0-1,0.2-1,1c0.1,2.3,0,4.5,0,6.7c0,3-2.5,5.5-5.6,5.6
	c-3.1,0.1-5.6-2.4-5.7-5.6c0-2.3,0-4.5,0-6.8c0-0.7-0.1-1-0.9-0.9c-1.2,0.1-2.4,0-3.6,0c-3.1,0-5.6-2.6-5.6-5.6
	c0-3.1,2.5-5.6,5.6-5.6c1.3,0,2.6,0,3.8,0c0.5,0,0.6-0.1,0.6-0.6c0-3.8,0-7.6,0-11.3c0-0.5-0.2-0.6-0.7-0.6c-1.3,0-2.6,0-4,0
	c-3,0-5.4-2.5-5.5-5.6c0-3,2.4-5.6,5.4-5.6c1.3,0,2.7,0,4,0c0.5,0,0.7-0.1,0.7-0.7c0-1.6-0.2-3.4,0.1-5c0.5-2.9,3.2-4.9,5.9-4.6
	c3.1,0.3,5.2,2.6,5.2,5.6c0,1.3,0,2.7,0,4c0,0.4,0.1,0.7,0.5,0.7c4.9,0,9.8,0,14.7,0c0.5,0,0.6-0.2,0.6-0.7c0-1.5-0.1-3,0.1-4.5
	c0.2-3,2.8-5.3,5.7-5.2c3,0.1,5.4,2.5,5.4,5.6c0,1.3,0.1,2.5,0,3.8c0,0.8,0.3,0.9,1,0.9c1.2-0.1,2.4,0,3.6,0c3,0.1,5.5,2.6,5.5,5.6
	s-2.4,5.6-5.5,5.6c-1.3,0-2.6,0-4,0c-0.5,0-0.6,0.1-0.6,0.6c0,3.8,0,7.6,0,11.3c0,0.5,0.1,0.6,0.6,0.6c1.3,0,2.6,0,4,0
	c3,0,5.5,2.5,5.5,5.6c0,3-2.4,5.6-5.4,5.6c-1.3,0-2.5,0.1-3.8,0c-0.7,0-0.9,0.1-0.9,0.9c0.1,2.3,0.1,4.6,0,6.9
	c-0.1,2.8-2.1,5.2-4.8,5.5c-3,0.3-5.6-1.4-6.2-4.3c-0.2-0.8-0.2-1.6-0.2-2.5c0-1.9,0-3.8,0-5.7c0-0.6-0.1-0.7-0.7-0.7
	C724.5,437.1,722,437,719.7,437z M712.4,413.3c-0.6,0-0.7,0.2-0.7,0.7c0,3.7,0,7.4,0,11.1c0,0.5,0.1,0.7,0.7,0.7c4.8,0,9.6,0,14.5,0
	c0.6,0,0.7-0.2,0.7-0.7c0-3.7,0-7.4,0-11.1c0-0.6-0.1-0.7-0.7-0.7c-2.4,0.1-4.8,0-7.2,0C717.2,413.3,714.8,413.3,712.4,413.3z"/>
<g>
	<path class="st0" d="M726.1,545.1c-2.2,3-4.3,6-6.3,8.8c-1.4,2-2.8,4-4.2,6c-1.3,1.9-3.2,2-4.8,0.2c-1.9-2.2-3.9-4.4-5.8-6.6
		c-0.3-0.4-0.5-0.4-0.9,0c-1.9,2.4-4,4.8-6,7.2c-0.5,0.5-0.5,1-0.1,1.7c7.9,12.6,25.6,14.4,36,3.7c8.6-8.9,8.7-22.8,0.1-31.7
		c-6.4-6.5-14.2-8.7-23-6.2c-8.7,2.6-14.1,8.6-16.1,17.4c-0.4,1.5-0.4,2.9-0.5,4.4c0,0.9-0.5,1.4-1.2,1.4c-0.8,0-1.3-0.5-1.3-1.5
		c0.1-4.8,1.4-9.3,4-13.4c8.9-13.9,28.5-16,39.8-4c6.8,7.2,8.9,15.8,5.9,25.3c-3,9.3-9.6,15.1-19.2,17.2
		c-10.4,2.3-20.9-2.4-26.6-11.3c-1-1.6-1-3,0.2-4.5c2.1-2.5,4.1-5.1,6.2-7.6c1.2-1.4,2.9-1.4,4.1-0.1c2,2.3,4.1,4.6,6,6.8
		c0.4,0.5,0.7,0.4,1-0.1c3.2-4.6,6.5-9.1,9.7-13.8c0.1-0.2,0.4-0.4,0.2-0.5c-0.2-0.2-0.4,0-0.6,0.1c-1.7,0.7-3.4,1.3-5.1,2
		c-0.9,0.4-1.5,0.1-1.8-0.5c-0.3-0.7,0-1.3,0.9-1.7c3.1-1.3,6.3-2.5,9.4-3.8c1.1-0.4,1.8,0.1,1.9,1.2c0.2,3.3,0.5,6.5,0.9,9.8
		c0.1,0.9-0.3,1.5-1.1,1.6c-0.8,0.1-1.3-0.5-1.4-1.4C726.5,549.4,726.3,547.3,726.1,545.1z"/>
</g>
<g>
	<g>
		<g>
			<path class="st0" d="M77,796.5c-0.2,4.3-1.4,7.5-3.6,9.7c-2.2,2.2-5.3,3.3-9.3,3.3c-2,0-3.9-0.3-5.6-1c-1.6-0.7-3-1.7-4.1-3.1
				c-1.1-1.3-2-3-2.6-5s-0.9-4.3-0.9-6.9v-6.3c0-2.6,0.3-4.9,0.9-6.9c0.6-2,1.5-3.6,2.6-5.1s2.6-2.4,4.2-3.1c1.6-0.7,3.5-1,5.5-1
				c4.1,0,7.2,1.2,9.3,3.4c2.1,2.3,3.3,5.6,3.6,9.8h-7.5c-0.1-1.3-0.1-2.4-0.3-3.3s-0.5-1.6-0.9-2.1c-0.4-0.5-1-0.9-1.6-1.2
				c-0.6-0.2-1.5-0.3-2.4-0.3c-1,0-1.9,0.2-2.6,0.5c-0.7,0.3-1.3,0.9-1.7,1.7s-0.8,1.8-1,3c-0.3,1.3-0.4,2.8-0.4,4.6v6.4
				c0,1.7,0.1,3.3,0.3,4.5c0.2,1.2,0.4,2.2,0.9,3c0.4,0.8,1,1.3,1.7,1.7c0.6,0.4,1.6,0.5,2.7,0.5c0.9,0,1.7-0.1,2.4-0.3
				c0.6-0.2,1.2-0.5,1.6-1c0.4-0.5,0.8-1.2,1-2c0.2-0.9,0.4-2,0.4-3.3C69.4,796.5,77,796.5,77,796.5z"/>
		</g>
	</g>
	<g>
		<g>
			<path class="st0" d="M108.7,796.5c-0.2,4.3-1.4,7.5-3.6,9.7c-2.2,2.2-5.3,3.3-9.3,3.3c-2,0-3.9-0.3-5.6-1c-1.6-0.7-3-1.7-4.1-3.1
				s-2-3-2.6-5c-0.6-2-0.9-4.3-0.9-6.9v-6.3c0-2.6,0.3-4.9,0.9-6.9c0.6-2,1.5-3.6,2.6-5.1s2.6-2.4,4.2-3.1c1.6-0.7,3.5-1,5.5-1
				c4.1,0,7.2,1.2,9.3,3.4c2.1,2.3,3.3,5.6,3.6,9.8h-7.5c-0.1-1.3-0.1-2.4-0.3-3.3s-0.5-1.6-0.9-2.1c-0.4-0.5-1-0.9-1.6-1.2
				c-0.6-0.2-1.5-0.3-2.4-0.3c-1,0-1.9,0.2-2.6,0.5c-0.7,0.3-1.3,0.9-1.7,1.7s-0.8,1.8-1,3c-0.3,1.3-0.4,2.8-0.4,4.6v6.4
				c0,1.7,0.1,3.3,0.3,4.5s0.4,2.2,0.9,3c0.4,0.8,1,1.3,1.7,1.7s1.6,0.5,2.7,0.5c0.9,0,1.7-0.1,2.4-0.3c0.6-0.2,1.2-0.5,1.6-1
				c0.4-0.5,0.8-1.2,1-2s0.4-2,0.4-3.3C101.1,796.5,108.7,796.5,108.7,796.5z"/>
		</g>
	</g>
	<rect x="48.9" y="814.9" class="st0" width="62.9" height="4.8"/>
</g>
<path class="st0" d="M285.5,821.4h-68.9c-0.6,0-1.2-0.6-1.2-1.2v-49.6c0-0.6,0.6-1.2,1.2-1.2h68.9c0.6,0,1.2,0.6,1.2,1.2v49.6
	C286.7,820.8,286.2,821.4,285.5,821.4z M241,802c-0.1,1.4-0.2,2.6-0.4,3.5c-0.2,0.9-0.6,1.7-1,2.2c-0.5,0.5-1,0.9-1.7,1.1
	c-0.7,0.2-1.5,0.3-2.5,0.3c-1.1,0-2.1-0.2-2.8-0.6c-0.7-0.4-1.4-1-1.8-1.8c-0.5-0.8-0.8-1.8-1-3.2c-0.2-1.3-0.2-2.9-0.2-4.7v-6.7
	c0-1.9,0.1-3.5,0.3-4.8s0.6-2.4,1-3.2s1-1.4,1.8-1.8s1.7-0.6,2.7-0.6s1.9,0.1,2.6,0.3c0.6,0.2,1.3,0.6,1.7,1.2s0.7,1.3,1,2.2
	s0.3,2.2,0.4,3.5h8c-0.3-4.5-1.6-7.9-3.8-10.4s-5.5-3.6-9.8-3.6c-2.2,0-4.1,0.4-5.8,1.1c-1.7,0.7-3.2,1.8-4.4,3.2
	c-1.2,1.4-2.2,3.2-2.8,5.3c-0.6,2.1-1,4.6-1,7.3v6.7c0,2.7,0.3,5.1,1,7.3c0.6,2.1,1.5,3.9,2.7,5.3c1.2,1.4,2.6,2.5,4.3,3.2
	c1.7,0.7,3.7,1.1,5.9,1.1c4.3,0,7.5-1.1,9.9-3.5s3.6-5.7,3.8-10.2L241,802L241,802z M272.7,802c-0.1,1.4-0.2,2.6-0.4,3.5
	c-0.2,0.9-0.6,1.7-1,2.2c-0.5,0.5-1,0.9-1.7,1.1c-0.7,0.2-1.6,0.2-2.6,0.2c-1.1,0-2.1-0.2-2.8-0.6s-1.4-1-1.8-1.8
	c-0.5-0.8-0.8-1.8-1-3.2c-0.2-1.4-0.2-2.9-0.2-4.7V792c0-1.9,0.1-3.5,0.3-4.8c0.2-1.3,0.6-2.4,1-3.2s1-1.4,1.8-1.8s1.7-0.6,2.7-0.6
	c1,0,1.9,0.1,2.6,0.3c0.6,0.2,1.3,0.6,1.7,1.2s0.7,1.3,1,2.2c0.2,1,0.3,2.2,0.4,3.5h8c-0.3-4.5-1.6-7.9-3.8-10.4
	c-2.2-2.4-5.5-3.6-9.8-3.6c-2.2,0-4.1,0.4-5.8,1.1c-1.7,0.7-3.2,1.8-4.4,3.2s-2.2,3.2-2.8,5.3c-0.6,2.1-1,4.6-1,7.3v6.7
	c0,2.7,0.3,5.1,1,7.3c0.6,2.1,1.5,3.9,2.7,5.3c1.2,1.4,2.6,2.5,4.3,3.2s3.7,1.1,5.9,1.1c4.3,0,7.5-1.1,9.9-3.5
	c2.3-2.3,3.6-5.7,3.8-10.2H272.7z"/>
<g>
	<path class="st0" d="M376,89.7V30.6l51.1,29.5L376,89.7z M378,34.2v52l45-26L378,34.2z"/>
</g>
<g>
	<g>
		<path class="st0" d="M392.5,209.6h-14.6v-46.5h14.6V209.6z M380,208h10.5v-43.1H380V208z"/>
	</g>
	<g>
		<path class="st0" d="M422.9,209.6h-14.6v-46.5h14.6V209.6z M410.4,208h10.5v-43.1h-10.5V208z"/>
	</g>
</g>
<g>
	<g>
		<g>
			<path class="st0" d="M378,448.4l-0.5-0.2c-0.4-0.2-0.5-0.5-0.5-0.9v-47.5c0-0.3,0.2-0.6,0.5-0.8l0.4-0.2l0.5,0.2l42.5,24.5
				l-42.4,24.5L378,448.4z M378.4,401v45.3l39.2-22.7L378.4,401z"/>
		</g>
	</g>
	<g>
		<g>
			<path class="st0" d="M405.1,448.4l-0.5-0.2c-0.4-0.2-0.5-0.5-0.5-0.9v-11h1.5v10l39.3-22.7L405.4,401v10.3h-1.5v-11.4
				c0-0.3,0.2-0.6,0.5-0.8l0.4-0.2l0.5,0.2l42.6,24.5l-42.5,24.5L405.1,448.4z"/>
		</g>
	</g>
</g>
<g>
	<g>
		<path class="st0" d="M429.5,314.8L429.5,314.8c-0.3,0-0.6-0.3-0.6-0.6v-39.7c0-0.3,0.3-0.6,0.6-0.6l0,0c0.3,0,0.6,0.3,0.6,0.6
			v39.8C430.2,314.5,429.9,314.8,429.5,314.8z"/>
	</g>
	<g>
		<g>
			<path class="st0" d="M382.1,317.5l-0.5-0.2c-0.3-0.1-0.5-0.4-0.5-0.8v-44.9l0.4-0.3c0.3-0.2,0.6-0.2,0.8,0l39.9,23l-39.8,22.9
				L382.1,317.5z M382.4,273v42.5l36.9-21.3L382.4,273z"/>
		</g>
	</g>
</g>
<path class="st0" d="M584.1,54.9l-41.6-24c-1-0.6-2.4,0.2-2.4,1.4v48.1c0,1.2,1.3,2,2.4,1.4l41.6-24
	C585.1,56.9,585.1,55.5,584.1,54.9z"/>
<g>
	<path class="st0" d="M553.1,209.4h-11.4c-1.1,0-1.9-0.7-1.9-1.6v-44.7c0-0.9,0.8-1.6,1.9-1.6h11.4c1.1,0,1.9,0.7,1.9,1.6v44.7
		C555,208.7,554.1,209.4,553.1,209.4z"/>
	<path class="st0" d="M583.3,209.4h-11.4c-1.1,0-1.9-0.7-1.9-1.6v-44.7c0-0.9,0.8-1.6,1.9-1.6h11.4c1.1,0,1.9,0.7,1.9,1.6v44.7
		C585.2,208.7,584.4,209.4,583.3,209.4z"/>
</g>
<g>
	<path class="st0" d="M564,430.3c-2.6,1.5-5.2,3-7.7,4.4c-5,2.9-9.9,5.8-15,8.7c-1,0.6-1.9,0.5-2.6-0.3c-0.2-0.4-0.4-0.8-0.4-1.2
		c0-15.1,0-30.1,0-45.2c0-1.6,1.4-2.3,2.8-1.6c6.2,3.5,12.4,7.2,18.5,10.7c1.2,0.7,2.4,1.3,3.6,2.1c0.5,0.3,0.6,0.2,0.6-0.4
		c0-3.5,0.1-7.1-0.1-10.6c-0.1-1.6,1.4-2.7,3.1-1.8c12.9,7.5,25.7,14.8,38.6,22.3c1.7,1,1.7,2.6,0,3.5
		c-12.8,7.5-25.7,14.8-38.5,22.3c-1.4,0.9-3.1,0-3.1-1.8C564.1,437.8,564,434.1,564,430.3z"/>
</g>
<g>
	<path class="st0" d="M581.3,290.8L545.4,270c-1.1-0.7-2.4,0.2-2.4,1.4V313c0,1.2,1.4,2.1,2.4,1.4l35.9-20.7
		C582.4,292.9,582.4,291.4,581.3,290.8z"/>
	<path class="st0" d="M590.4,313.6h-2.1c-0.9,0-1.6-0.7-1.6-1.6v-39.5c0-0.9,0.7-1.6,1.6-1.6h2.1c0.9,0,1.6,0.7,1.6,1.6v39.5
		C592.1,312.8,591.3,313.6,590.4,313.6z"/>
</g>
<g>
	<path class="st0" d="M843.5,803.3l-3.1,3.9v11.3h-8v-39.4h7.9v17.2l2.6-4.3l7.3-13h9.8l-11.3,17.3l11.5,22.1h-9.4L843.5,803.3z"/>
	<path class="st0" d="M863.9,818.6v-39.4h12.2c2,0,3.7,0.2,5.3,0.6s2.9,1.1,3.9,2c1.1,0.9,1.9,2,2.5,3.4c0.5,1.4,0.8,2.9,0.8,4.8
		c0,0.9-0.1,1.7-0.3,2.6c-0.2,0.8-0.5,1.6-0.9,2.4c-0.5,0.7-0.9,1.4-1.6,2c-0.6,0.6-1.3,0.9-2.1,1.3c1,0.3,1.8,0.7,2.6,1.3
		c0.7,0.5,1.3,1.3,1.7,2c0.5,0.7,0.7,1.6,0.9,2.6s0.3,1.8,0.3,2.8c0,3.8-1.1,6.8-3.2,8.7s-5.1,2.9-9.1,2.9H863.9z M871.9,795.7h4.1
		c1.6,0,2.7-0.5,3.6-1.3c0.7-0.8,1.2-2,1.2-3.7c0-1.8-0.4-3.1-1.1-3.8c-0.7-0.8-1.9-1.2-3.6-1.2h-4.2V795.7z M871.9,801.4v10.5h5.1
		c0.8,0,1.5-0.1,2-0.4c0.5-0.3,1-0.6,1.4-1.1c0.4-0.5,0.6-1,0.7-1.6c0.2-0.6,0.3-1.3,0.3-2c0-1.6-0.3-3-0.9-4s-1.6-1.5-3.2-1.5
		L871.9,801.4L871.9,801.4z"/>
	<path class="st0" d="M910.8,808.2c0-0.7-0.1-1.3-0.2-1.8s-0.4-1.1-0.8-1.6s-1-0.9-1.7-1.4c-0.7-0.5-1.7-0.9-3-1.5
		c-1.5-0.5-2.9-1.2-4.2-1.9c-1.4-0.7-2.6-1.6-3.6-2.6s-1.8-2.1-2.5-3.4c-0.6-1.3-0.9-2.8-0.9-4.5s0.3-3.1,0.9-4.5
		c0.6-1.4,1.5-2.6,2.6-3.5c1.1-0.9,2.5-1.7,3.9-2.2c1.6-0.5,3.2-0.8,5-0.8c1.9,0,3.7,0.3,5.1,0.9c1.6,0.6,2.8,1.5,3.9,2.6
		s1.9,2.4,2.5,3.8c0.5,1.5,0.9,3.1,0.9,4.9h-7.9c0-0.8-0.1-1.6-0.3-2.3c-0.2-0.7-0.5-1.3-0.8-1.8c-0.4-0.5-0.8-0.9-1.5-1.2
		c-0.5-0.3-1.3-0.5-2.1-0.5c-0.7,0-1.4,0.1-2,0.4c-0.5,0.3-1,0.5-1.4,1c-0.4,0.4-0.6,0.9-0.8,1.5c-0.2,0.5-0.3,1.2-0.3,1.8
		s0.2,1.3,0.5,1.7c0.3,0.5,0.6,1,1.2,1.5c0.5,0.5,1.1,0.9,1.8,1.3c0.7,0.4,1.6,0.8,2.5,1.2c1.8,0.6,3.5,1.4,4.8,2.2s2.6,1.7,3.5,2.7
		s1.6,2.2,2.1,3.5c0.5,1.3,0.6,2.7,0.6,4.4c0,1.7-0.3,3.3-0.8,4.7c-0.5,1.4-1.4,2.5-2.5,3.5c-1.1,1-2.4,1.6-3.8,2.1
		s-3.2,0.7-5.1,0.7c-1.7,0-3.4-0.3-5-0.7c-1.6-0.5-3.1-1.3-4.4-2.4c-1.3-1.1-2.3-2.4-3.1-4s-1.2-3.6-1.2-5.8h8c0,1.2,0.1,2.2,0.4,3
		c0.3,0.8,0.5,1.5,1.1,2c0.5,0.5,1.1,0.9,1.7,1.1c0.7,0.2,1.6,0.4,2.5,0.4c0.7,0,1.4-0.1,1.9-0.4c0.5-0.2,1-0.5,1.3-0.9
		c0.4-0.4,0.5-0.8,0.7-1.4C910.7,809.4,910.8,808.9,910.8,808.2z"/>
</g>
<g>
	<path class="st0" d="M586.5,655.7h-54.1c-1.3,0-2.4-1.1-2.4-2.4l0,0c0-1.3,1.1-2.4,2.4-2.4h54.1c1.3,0,2.4,1.1,2.4,2.4l0,0
		C588.8,654.6,587.8,655.7,586.5,655.7z"/>
	<path class="st0" d="M570,673.8h-37.6c-1.3,0-2.4-1.1-2.4-2.4l0,0c0-1.3,1.1-2.4,2.4-2.4H570c1.3,0,2.4,1.1,2.4,2.4l0,0
		C572.4,672.8,571.3,673.8,570,673.8z"/>
	<path class="st0" d="M556.1,691.9h-23.7c-1.3,0-2.4-1.1-2.4-2.4l0,0c0-1.3,1.1-2.4,2.4-2.4h23.7c1.3,0,2.4,1.1,2.4,2.4l0,0
		C558.5,690.9,557.4,691.9,556.1,691.9z"/>
</g>
<g>
	<g class="st1">
		<path class="st0" d="M583.3,882.3v21.8c0,0.9-0.7,1.7-1.7,1.7h-21.8c-0.9,0-1.7-0.7-1.7-1.7v-21.8c0-0.9,0.7-1.7,1.7-1.7h21.8
			C582.5,880.6,583.3,881.4,583.3,882.3z"/>
		<path class="st0" d="M555.7,915.3v17c0,0.7-0.6,1.3-1.3,1.3h-17c-0.7,0-1.3-0.6-1.3-1.3v-17c0-0.7,0.6-1.3,1.3-1.3h17
			C555.2,914.1,555.7,914.6,555.7,915.3z"/>
		<path class="st0" d="M550,887v12.4c0,0.5-0.4,1-1,1h-12.4c-0.5,0-1-0.4-1-1V887c0-0.5,0.4-1,1-1H549C549.6,886,550,886.5,550,887z
			"/>
	</g>
	<g class="st1">
		<path class="st0" d="M598.8,902.4h-4.4c-0.4,0-0.7-0.3-0.7-0.7v-4.4c0-0.4,0.3-0.7,0.7-0.7h4.4c0.4,0,0.7,0.3,0.7,0.7v4.4
			C599.6,902.1,599.2,902.4,598.8,902.4z"/>
	</g>
	<g class="st1">
		<path class="st0" d="M610.2,934.6h-10c-0.9,0-1.7-0.7-1.7-1.7v-10c0-0.9,0.7-1.7,1.7-1.7h10c0.9,0,1.7,0.7,1.7,1.7v10
			C611.9,933.8,611.1,934.6,610.2,934.6z"/>
		<path class="st0" d="M593.3,917h-5.7c-0.5,0-1-0.4-1-1v-5.7c0-0.5,0.4-1,1-1h5.7c0.5,0,1,0.4,1,1v5.7
			C594.2,916.5,593.8,917,593.3,917z"/>
		<path class="st0" d="M575.8,921.8h-4.4c-0.4,0-0.7-0.3-0.7-0.7v-4.4c0-0.4,0.3-0.7,0.7-0.7h4.4c0.4,0,0.7,0.3,0.7,0.7v4.4
			C576.5,921.5,576.2,921.8,575.8,921.8z"/>
	</g>
</g>
<g>
	<path class="st0" d="M713.2,912.4l6.8-29.2h9.1l-11.6,40.3H709l-11.5-40.3h9L713.2,912.4z"/>
	<path class="st0" d="M760.8,906.4c0,3.4-0.5,6.4-1.4,8.7c-1,2.4-2.3,4.3-3.9,5.8l5.5,5l-5.1,4.7l-7.4-6.8c-0.3,0.1-0.7,0.1-1,0.1
		s-0.7,0.1-1.1,0.1c-2.1,0-4.2-0.3-5.9-1.1c-1.8-0.8-3.3-1.9-4.6-3.3c-1.2-1.5-2.3-3.3-3-5.5c-0.7-2.2-1-4.7-1-7.6v-6.2
		c0-2.9,0.3-5.5,1-7.6c0.7-2.1,1.7-4,3-5.5c1.2-1.5,2.8-2.6,4.6-3.3c1.8-0.8,3.7-1.1,5.9-1.1c2.1,0,4.2,0.3,5.9,1.1
		c1.8,0.8,3.3,1.9,4.6,3.3c1.2,1.5,2.3,3.3,3,5.5c0.7,2.2,1,4.8,1,7.6C760.8,900.3,760.8,906.4,760.8,906.4z M752.7,900.2
		c0-1.9-0.1-3.5-0.4-4.9c-0.3-1.4-0.7-2.5-1.2-3.3s-1.2-1.5-2-1.9c-0.8-0.4-1.7-0.6-2.7-0.6c-1,0-1.9,0.2-2.8,0.6
		c-0.8,0.4-1.5,1-2,1.9s-1,2-1.2,3.3c-0.3,1.3-0.4,3-0.4,4.9v6.2c0,1.9,0.1,3.5,0.4,4.9c0.3,1.4,0.7,2.5,1.2,3.3s1.2,1.5,2,1.9
		c0.8,0.4,1.7,0.6,2.8,0.6c1,0,1.9-0.2,2.7-0.6c0.8-0.4,1.5-1,2-1.9c0.6-0.8,1-2,1.2-3.3c0.3-1.3,0.4-3,0.4-4.9V900.2z"/>
</g>
<g>
	<path class="st0" d="M438.3,882.7v21.7c0,0.6-0.5,1.2-1.2,1.2h-21.8c-0.6,0-1.2-0.5-1.2-1.2v-21.7c0-0.6,0.5-1.2,1.2-1.2h21.7
		C437.8,881.5,438.3,882.1,438.3,882.7z"/>
	<path class="st0" d="M411.9,914.6v16.7c0,0.6-0.5,1.1-1.1,1.1h-16.6c-0.6,0-1.1-0.5-1.1-1.1v-16.7c0-0.6,0.5-1.1,1.1-1.1H411
		C411.5,913.6,411.9,914,411.9,914.6z"/>
	<path class="st0" d="M406.4,887.5v11.9c0,0.6-0.5,1.1-1.1,1.1h-11.6c-0.6,0-1.1-0.5-1.1-1.1v-11.6c0-0.6,0.5-1.1,1.1-1.1h11.9
		C406.1,886.7,406.4,887.1,406.4,887.5z"/>
	<path class="st0" d="M434.7,916.6v8.8c0,0.6-0.5,1.1-1.1,1.1h-8.5c-0.6,0-1.1-0.5-1.1-1.1v-8.5c0-0.6,0.5-1.1,1.1-1.1h8.8
		C434.4,915.9,434.7,916.2,434.7,916.6z"/>
</g>
<g>
	<path class="st0" d="M733.2,823c5.4-11.9,0.3-25.7-8.3-31.7c0,1.6,0.3,3,0.4,4.5c0.4,3.3,0.9,6.6,0.5,10c-0.1,1.4-0.4,2.8-1.1,4.1
		c-0.1,0.3-0.3,0.5-0.5,0.9c-1.1-4.4-3.6-8.2-5.3-12.3c-0.3,0.5-0.4,0.9-0.5,1.3c-0.1,0.4-0.3,0.9-0.5,1.3c-0.7,2.2-1.7,4.2-3,6.1
		c-1.1,1.6-2,3.2-2.6,4.9c-1.1,3-0.7,6,0.3,8.9c0.3,0.7,0.5,1.4,0.9,2.3c-0.3-0.1-0.4-0.1-0.5-0.1c-3.7-2.2-7.2-4.6-9.8-8.1
		c-3.1-4-3.6-8.6-2.4-13.5c0.7-2.8,2-5.3,3.2-7.8c1.4-2.9,2.8-5.8,3.2-9.3c1.8,2.8,2,5.7,2.3,8.6c0.2,0.1,0.3-0.1,0.4-0.2
		c3.6-4.6,6.9-9.4,8.8-14.9c1-2.8,1.6-5.7,1.3-8.8c0-0.3,0-0.5,0-0.7c0.7,0.1,1.3,0.4,1.9,0.7c4.4,2.4,7.6,6.1,10.1,10.5
		c1.3,2.4,2.4,5.1,3.2,7.8c0.1,0.3,0.1,0.7,0.4,0.9c2-1.7,2.5-6,1.1-9.2c0.4-0.1,0.6,0.1,0.8,0.3c5.1,5.1,8.8,11.1,10.3,18.3
		c1.4,7-0.5,13.1-5.3,18.3c-2.5,2.8-5.5,5-8.8,6.8C733.6,823,733.5,823.2,733.2,823z"/>
</g>
<g>
	<rect x="219.9" y="917.9" class="st0" width="13" height="13.9"/>
	<rect x="219.9" y="907.4" class="st0" width="13" height="7"/>
	<rect x="244.6" y="903.7" class="st0" width="13" height="17.7"/>
	<rect x="244.6" y="924.8" class="st0" width="13" height="7"/>
	<rect x="244.6" y="893.3" class="st0" width="13" height="7"/>
	<rect x="269.2" y="890.3" class="st0" width="13" height="26.1"/>
	<rect x="269.2" y="921.5" class="st0" width="13" height="10.3"/>
	<rect x="269.3" y="874.9" class="st0" width="13" height="10.3"/>
</g>
</svg>
