<?xml version="1.0" encoding="UTF-8" standalone="no"?>
<!-- Created with Inkscape (http://www.inkscape.org/) -->

<svg
   xmlns:dc="http://purl.org/dc/elements/1.1/"
   xmlns:cc="http://creativecommons.org/ns#"
   xmlns:rdf="http://www.w3.org/1999/02/22-rdf-syntax-ns#"
   xmlns:svg="http://www.w3.org/2000/svg"
   xmlns="http://www.w3.org/2000/svg"
   xmlns:sodipodi="http://sodipodi.sourceforge.net/DTD/sodipodi-0.dtd"
   xmlns:inkscape="http://www.inkscape.org/namespaces/inkscape"
   width="12.812889mm"
   height="13.518444mm"
   viewBox="0 0 45.400001 47.899998"
   id="svg8518"
   version="1.1"
   inkscape:version="0.91 r13725"
   sodipodi:docname="pause.svg">
  <defs
     id="defs8520" />
  <sodipodi:namedview
     id="base"
     pagecolor="#ffffff"
     bordercolor="#666666"
     borderopacity="1.0"
     inkscape:pageopacity="0.0"
     inkscape:pageshadow="2"
     inkscape:zoom="0.35"
     inkscape:cx="-640.87143"
     inkscape:cy="-138.90714"
     inkscape:document-units="px"
     inkscape:current-layer="layer1"
     showgrid="false"
     fit-margin-top="0"
     fit-margin-left="0"
     fit-margin-right="0"
     fit-margin-bottom="0"
     inkscape:window-width="1920"
     inkscape:window-height="1056"
     inkscape:window-x="0"
     inkscape:window-y="24"
     inkscape:window-maximized="1" />
  <metadata
     id="metadata8523">
    <rdf:RDF>
      <cc:Work
         rdf:about="">
        <dc:format>image/svg+xml</dc:format>
        <dc:type
           rdf:resource="http://purl.org/dc/dcmitype/StillImage" />
        <dc:title></dc:title>
      </cc:Work>
    </rdf:RDF>
  </metadata>
  <g
     inkscape:label="Layer 1"
     inkscape:groupmode="layer"
     id="layer1"
     transform="translate(-320.15714,-345.55506)">
    <g
       transform="translate(-219.64286,184.05506)"
       id="g351">
      <path
         inkscape:connector-curvature="0"
         class="st0"
         d="m 553.1,209.4 -11.4,0 c -1.1,0 -1.9,-0.7 -1.9,-1.6 l 0,-44.7 c 0,-0.9 0.8,-1.6 1.9,-1.6 l 11.4,0 c 1.1,0 1.9,0.7 1.9,1.6 l 0,44.7 c 0,0.9 -0.9,1.6 -1.9,1.6 z"
         id="path353" />
      <path
         inkscape:connector-curvature="0"
         class="st0"
         d="m 583.3,209.4 -11.4,0 c -1.1,0 -1.9,-0.7 -1.9,-1.6 l 0,-44.7 c 0,-0.9 0.8,-1.6 1.9,-1.6 l 11.4,0 c 1.1,0 1.9,0.7 1.9,1.6 l 0,44.7 c 0,0.9 -0.8,1.6 -1.9,1.6 z"
         id="path355" />
    </g>
  </g>
</svg>
